<?xml version="1.0" encoding="UTF-8"?>
<!DOCTYPE svg PUBLIC "-//W3C//DTD SVG 1.1//EN" "http://www.w3.org/Graphics/SVG/1.1/DTD/svg11.dtd">
<svg xmlns="http://www.w3.org/2000/svg" xml:space="preserve" width="40px" height="40px" version="1.1" shape-rendering="geometricPrecision" text-rendering="geometricPrecision" image-rendering="optimizeQuality" fill-rule="evenodd" clip-rule="evenodd"
viewBox="0 0 1189 1189">
 <defs>
    <linearGradient id="id0" gradientUnits="userSpaceOnUse" x1="296" y1="940" x2="1018" y2="250">
     <stop offset="0" stop-opacity="1" stop-color="#389FD6"/>
     <stop offset="0.65098" stop-opacity="1" stop-color="#6CB4A3"/>
     <stop offset="1" stop-opacity="1" stop-color="#A0C970"/>
    </linearGradient>
 </defs>
 <g id="Layer_x0020_1">
  <metadata id="CorelCorpID_0Corel-Layer"/>
  <g id="_1850054208">
   <path fill="url(#id0)" d="M379 89l379 318 379 318c7,6 10,14 8,22 -2,9 -7,15 -15,18l-465 169 -465 169c-8,3 -17,1 -23,-4 -7,-6 -10,-14 -8,-22l86 -487 86 -487c2,-9 7,-15 15,-18 8,-3 17,-1 23,4z"/>
   <path fill="#F2949A" d="M961 533l-405 -340c-4,-3 -5,-8 -4,-13 2,-5 6,-8 11,-8l217 0c4,0 8,2 10,6l189 340c3,5 2,11 -3,15 -4,4 -11,4 -15,0z"/>
   <path fill="white" d="M634 555c8,1 10,3 19,2 10,0 20,0 24,-8 1,-12 7,-21 5,-32 -47,6 -58,-12 -127,31 1,0 2,0 2,0 1,1 2,0 2,0 12,0 51,-14 60,-9 3,3 3,5 7,8 4,4 4,3 8,7zm-45 82c-80,41 -117,134 -98,224 6,29 25,79 46,95 -29,-98 -38,-156 15,-244 -19,36 -5,132 26,178 17,25 38,43 58,60 14,11 54,39 68,44 -31,-48 -64,-83 -66,-150 -2,-77 35,-104 46,-127 -75,28 -88,101 -68,176 -16,-16 -29,-55 -34,-79 -14,-64 3,-133 40,-183 2,-3 4,-5 5,-7 6,-10 3,-5 2,-6 -19,6 -25,12 -40,19zm-245 71l-1 17c-6,64 26,151 71,202 12,14 34,35 49,37 -26,-79 -25,-151 -5,-212 7,-20 29,-65 45,-83 16,-17 55,-57 80,-68l19 -13 -29 7 -20 7 -24 13 -5 2c-8,7 -19,14 -28,22 -11,9 -17,13 -26,24l-5 7 -6 8c-4,6 0,2 -5,8 -19,23 -33,61 -38,97 -7,47 2,75 17,124 -29,-52 -47,-84 -52,-147 -2,-21 -1,-48 4,-66 3,-10 6,-19 8,-30 2,-10 6,-22 10,-29 3,-7 12,-24 18,-30 2,-9 4,-6 9,-16 -32,-51 -63,-74 -77,-157 -5,-27 -5,-55 -1,-79 3,-20 10,-53 22,-69 4,62 13,152 89,175 19,6 41,11 64,7 -9,-6 -11,-2 -36,-19 -9,-6 -24,-18 -30,-29 53,-18 106,-17 148,-5 22,6 42,14 61,27 20,13 37,37 41,66l4 16c5,13 7,9 12,17 6,2 7,4 13,7 6,4 10,6 15,9 10,6 21,14 30,21 39,29 16,40 -31,58 5,6 31,19 39,24 -2,16 -8,22 -23,35 -10,9 -29,21 -35,30 8,7 21,4 34,0 23,70 -54,34 -85,49 -14,7 -27,19 -20,32 17,0 35,-5 54,-5 16,0 38,3 55,-2 40,-13 23,-61 30,-92 6,-30 25,-21 36,-89 13,-78 -28,-59 -82,-111 -26,-25 -3,-79 -102,-120 -44,-18 -103,-22 -153,-13 -22,4 -44,14 -62,17 -30,-73 7,-169 54,-219 -20,11 -48,38 -61,54 -21,25 -26,41 -39,66 -9,-37 0,-76 6,-105 -22,19 -59,93 -66,116 -11,37 -19,58 -21,99 -3,55 15,22 -42,68 -34,27 -76,78 -85,117 15,-15 23,-33 54,-62 23,-20 47,-37 79,-47 17,52 31,76 62,115 -10,24 -24,42 -33,83 -2,10 -1,22 -5,31z"/>
   <path fill="#F5C254" d="M269 303l-94 534c-1,5 -5,9 -10,10 -5,1 -10,-1 -12,-6l-107 -186c-2,-4 -2,-8 0,-12l201 -348c3,-5 9,-7 14,-5 5,2 9,7 8,13z"/>
   <path fill="#E8B2E8" d="M906 888l-464 169c-5,2 -9,8 -8,13 1,6 6,10 12,10l367 0c4,0 8,-2 10,-6l98 -169c3,-4 2,-10 -1,-14 -3,-4 -8,-5 -13,-4z"/>
  </g>
  <rect fill="none" width="1189" height="1189"/>
 </g>
</svg>
