<svg xmlns="http://www.w3.org/2000/svg" xml:space="preserve" fill-rule="evenodd" clip-rule="evenodd" width="13px" height="13px" viewBox="0 0 1936 1688">
  <path fill="#6e6e6e" d="M1006 22l462 800 462 800c8,14 8,30 0,44 -8,14 -22,22 -38,22l-924 0 -924 0c-16,0 -30,-8 -38,-22 -8,-14 -8,-30 0,-44l462 -800 462 -800c8,-14 22,-22 38,-22 16,0 30,8 38,22zm-462 865c28,449 466,829 1003,453 17,-12 26,-29 27,-49 1,-20 -7,-38 -22,-52l-272 -239c-25,-22 -61,-21 -85,1 -75,68 -108,135 -137,185 -12,21 -34,33 -58,32 -25,-1 -45,-15 -55,-37 -35,-76 -56,-191 -55,-335 0,-20 -8,-36 -22,-49 -15,-13 -33,-18 -52,-14l-218 37c-32,5 -55,34 -53,67z"/>
</svg>
